
        <svg xmlns="http://www.w3.org/2000/svg" xmlns:xlink="http://www.w3.org/1999/xlink" version="1.1" width="3147.783251231527" height="635.4679802955665" viewBox="0 0 3147.783251231527 635.4679802955665">
			
			<g transform="scale(7.389162561576355) translate(10, 10)">
				<defs id="SvgjsDefs2906"/><g id="SvgjsG2907" featureKey="S6ay6y-0" transform="matrix(0.9175600393240017,0,0,0.9175600393240017,-15.942605683254529,-11.934984569229005)" fill="#fff"><g xmlns="http://www.w3.org/2000/svg" display="none"><rect display="inline" width="100" height="100"/><rect x="-100" y="100" display="inline" width="100" height="100"/><g display="inline"><circle cx="-50" cy="-50" r="50"/><circle cx="50.333" cy="-50" r="50"/><circle cx="150" cy="-50" r="50"/><circle cx="-50" cy="50" r="50"/><circle cx="50" cy="50" r="50"/></g><g display="inline"><circle cx="-50" cy="150" r="50"/><circle cx="50.333" cy="150" r="50"/><circle cx="150" cy="150" r="50"/></g><g display="inline" opacity="0.05"><g><g><g><line stroke="#4c102a" stroke-width="0.5" stroke-miterlimit="10" x1="100" y1="-100" x2="200" y2="0"/><line stroke="#4c102a" stroke-width="0.5" stroke-miterlimit="10" x1="200" y1="-100" x2="100" y2="0"/></g></g><g><g><line stroke="#4c102a" stroke-width="0.5" stroke-miterlimit="10" x1="0" y1="-100" x2="100" y2="0"/><line stroke="#4c102a" stroke-width="0.5" stroke-miterlimit="10" x1="100" y1="-100" x2="0" y2="0"/></g></g><g><g><line stroke="#4c102a" stroke-width="0.5" stroke-miterlimit="10" x1="-100" y1="-100" x2="0" y2="0"/><line stroke="#4c102a" stroke-width="0.5" stroke-miterlimit="10" x1="0" y1="-100" x2="-100" y2="0"/></g></g></g><g><g><g><line stroke="#4c102a" stroke-width="0.5" stroke-miterlimit="10" x1="100" y1="0" x2="200" y2="100"/><line stroke="#4c102a" stroke-width="0.5" stroke-miterlimit="10" x1="200" y1="0" x2="100" y2="100"/></g></g><g><g><line stroke="#4c102a" stroke-width="0.5" stroke-miterlimit="10" x1="0" y1="0" x2="100" y2="100"/><line stroke="#4c102a" stroke-miterlimit="10" x1="49.5" y1="15" x2="49.5" y2="87"/><line stroke="#4c102a" stroke-miterlimit="10" x1="86" y1="50.5" x2="14" y2="50.5"/><line stroke="#4c102a" stroke-width="0.5" stroke-miterlimit="10" x1="100" y1="0" x2="0" y2="100"/><g><path d="M85,15v71H14V15H85 M85.5,14.5H85H14h-0.5V15v71v0.5H14h71h0.5V86V15V14.5L85.5,14.5z"/></g></g></g><g><g><line stroke="#4c102a" stroke-width="0.5" stroke-miterlimit="10" x1="-100" y1="0" x2="0" y2="100"/><line stroke="#4c102a" stroke-width="0.5" stroke-miterlimit="10" x1="0" y1="0" x2="-100" y2="100"/></g></g></g><g><g><g><line stroke="#4c102a" stroke-width="0.5" stroke-miterlimit="10" x1="100" y1="100" x2="200" y2="200"/><line stroke="#4c102a" stroke-width="0.5" stroke-miterlimit="10" x1="200" y1="100" x2="100" y2="200"/></g></g><g><g><line stroke="#4c102a" stroke-width="0.5" stroke-miterlimit="10" x1="0" y1="100" x2="100" y2="200"/><line stroke="#4c102a" stroke-width="0.5" stroke-miterlimit="10" x1="100" y1="100" x2="0" y2="200"/></g></g><g><g><line stroke="#4c102a" stroke-width="0.5" stroke-miterlimit="10" x1="-100" y1="100" x2="0" y2="200"/><line stroke="#4c102a" stroke-width="0.5" stroke-miterlimit="10" x1="0" y1="100" x2="-100" y2="200"/></g></g></g></g></g><g xmlns="http://www.w3.org/2000/svg"><g><path d="M57.712,70.215H42.03c-0.828,0-1.5-0.672-1.5-1.5v-1.113c0-2.39-1.513-4.818-3.113-7.389    c-2.127-3.414-4.536-7.282-4.536-12.396c0-9.296,7.563-16.859,16.858-16.859s16.859,7.563,16.859,16.859    c0,4.357-2.1,7.982-4.13,11.489c-1.676,2.896-3.257,5.629-3.257,8.296v1.113C59.212,69.543,58.54,70.215,57.712,70.215z     M43.521,67.215h12.697c0.126-3.315,1.841-6.278,3.651-9.409c1.834-3.167,3.729-6.438,3.729-9.989    c0-7.642-6.218-13.859-13.859-13.859s-13.858,6.218-13.858,13.859c0,4.257,2.075,7.588,4.082,10.81    C41.646,61.33,43.386,64.122,43.521,67.215z"/></g><g><path d="M56.599,76.5H43.145c-0.828,0-1.5-0.672-1.5-1.5s0.672-1.5,1.5-1.5h13.454c0.828,0,1.5,0.672,1.5,1.5    S57.427,76.5,56.599,76.5z"/></g><g><path d="M53.961,82.5h-8.179c-0.828,0-1.5-0.672-1.5-1.5s0.672-1.5,1.5-1.5h8.179c0.828,0,1.5,0.672,1.5,1.5    S54.789,82.5,53.961,82.5z"/></g><g><path d="M49.739,25.706c-0.828,0-1.5-0.672-1.5-1.5v-7.519c0-0.828,0.672-1.5,1.5-1.5s1.5,0.672,1.5,1.5v7.519    C51.239,25.034,50.567,25.706,49.739,25.706z"/></g><g><path d="M66.755,32.301c-0.384,0-0.768-0.146-1.061-0.439c-0.586-0.586-0.586-1.535,0-2.121l5.54-5.539    c0.586-0.586,1.535-0.586,2.121,0s0.586,1.535,0,2.121l-5.54,5.539C67.522,32.154,67.139,32.301,66.755,32.301z"/></g><g><path d="M27.448,71.871c-0.372,0-0.745-0.138-1.036-0.415c-0.599-0.572-0.621-1.521-0.049-2.121l5.54-5.804    c0.573-0.598,1.521-0.621,2.121-0.049c0.599,0.572,0.621,1.521,0.049,2.121l-5.54,5.804    C28.238,71.716,27.844,71.871,27.448,71.871z"/></g><g><path d="M81,49.316h-7.255c-0.828,0-1.5-0.672-1.5-1.5s0.672-1.5,1.5-1.5H81c0.828,0,1.5,0.672,1.5,1.5S81.828,49.316,81,49.316z"/></g><g><path d="M25.998,49.316h-7.123c-0.828,0-1.5-0.672-1.5-1.5s0.672-1.5,1.5-1.5h7.123c0.828,0,1.5,0.672,1.5,1.5    S26.826,49.316,25.998,49.316z"/></g><g><path d="M32.856,32.434c-0.384,0-0.768-0.146-1.061-0.439l-5.276-5.276c-0.586-0.586-0.586-1.535,0-2.121s1.535-0.586,2.121,0    l5.276,5.276c0.586,0.586,0.586,1.535,0,2.121C33.624,32.287,33.24,32.434,32.856,32.434z"/></g><g><path d="M72.163,71.476c-0.384,0-0.768-0.146-1.061-0.439l-5.276-5.276c-0.586-0.586-0.586-1.535,0-2.121s1.535-0.586,2.121,0    l5.276,5.276c0.586,0.586,0.586,1.535,0,2.121C72.931,71.329,72.547,71.476,72.163,71.476z"/></g><g><path d="M43.556,55.327c-0.384,0-0.768-0.146-1.061-0.439c-3.998-3.999-3.998-10.506,0-14.505c4.001-3.998,10.507-3.997,14.504,0    c0.586,0.586,0.586,1.535,0,2.121s-1.535,0.586-2.121,0c-2.828-2.828-7.432-2.828-10.262,0c-2.828,2.829-2.828,7.434,0,10.263    c0.586,0.586,0.586,1.536,0,2.121C44.323,55.181,43.939,55.327,43.556,55.327z"/></g></g></g><g id="SvgjsG2908" featureKey="textGroupContainer" transform="matrix(1,0,0,1,405,0)" fill="#fff"><rect xmlns="http://www.w3.org/2000/svg" y="0" height="1" width="1" opacity="0"/><rect xmlns="http://www.w3.org/2000/svg" y="0" x="-325" width="3" height="66"/></g><g id="SvgjsG2909" featureKey="j5pGhi-0" transform="matrix(1.6800054044291506,0,0,1.6800054044291506,95.55542403603924,8.599972977854247)" fill="#fff"><path d="M7.3438 9.766 c2.6465 0 4.834 1.9434 4.834 5.2344 s-2.1875 5.2344 -4.834 5.2344 c-1.3086 0 -2.4805 -0.50781 -3.0762 -1.4258 l0 6.0742 l-2.8125 0 l0 -14.922 l2.666 0 l0.078125 1.3477 c0.55664 -0.99609 1.7773 -1.543 3.1445 -1.543 z M6.709 17.9004 c1.4746 0 2.6563 -1.0742 2.6563 -2.9004 s-1.1816 -2.9004 -2.6563 -2.9004 c-1.5039 0 -2.6758 1.1426 -2.6758 2.9004 s1.1719 2.9004 2.6758 2.9004 z M14.296896875 20 l0 -15 l2.8418 0 l0 15 l-2.8418 0 z M28.28125 17.2754 c0 1.2305 0.11719 2.0117 0.24414 2.4512 l0 0.27344 l-2.627 0 l-0.22461 -1.0938 c-0.75195 0.9082 -2.0508 1.2891 -3.2227 1.2891 c-1.582 0 -3.125 -0.70313 -3.125 -2.793 c0 -2.0801 1.5527 -2.7832 3.6523 -3.2422 l1.6504 -0.37109 c0.71289 -0.16602 0.9668 -0.41016 0.9668 -0.82031 c0 -0.98633 -0.89844 -1.2598 -1.6895 -1.2598 c-1.0156 0 -1.7871 0.40039 -1.9629 1.5332 l-2.4902 -0.44922 c0.41992 -2.0801 1.9434 -3.0273 4.6094 -3.0273 c2.0117 0 4.2188 0.5957 4.2188 3.623 l0 3.8867 z M23.33005 18.291 c1.3379 0 2.4121 -0.88867 2.4121 -2.8809 l-2.3828 0.67383 c-0.78125 0.18555 -1.3477 0.45898 -1.3477 1.1328 c0 0.72266 0.5957 1.0742 1.3184 1.0742 z M37.587846875 9.961 l2.8809 0 l-6.1914 14.766 l-2.8516 0 l2.2949 -5.1367 l-4.1309 -9.6289 l3.0664 0 l2.3926 6.6016 z M48.867146875 9.961 l2.6758 0 l0 9.2871 c0 3.9063 -2.1191 5.4883 -5.3223 5.4883 c-2.8809 0 -4.4434 -1.2109 -5.1758 -3.1152 l2.334 -0.99609 c0.56641 1.2988 1.3867 1.9238 2.7344 1.9238 c1.7773 0 2.6074 -1.1133 2.6074 -3.0957 l0 -1.1719 c-0.58594 0.80078 -1.7383 1.3672 -3.0469 1.3672 c-2.4902 0 -4.5801 -1.9629 -4.5801 -4.9609 c0 -3.0078 2.0996 -4.9219 4.5996 -4.9219 c1.4063 0 2.5586 0.625 3.1055 1.5234 z M46.396446875 17.373 c1.4648 0 2.5977 -1.1914 2.5977 -2.6855 c0 -1.5039 -1.1133 -2.6953 -2.5977 -2.6953 c-1.4746 0 -2.5879 1.1426 -2.5879 2.6953 c0 1.5332 1.1328 2.6855 2.5879 2.6855 z M57.1582125 11.5527 c0.50781 -0.88867 1.8262 -1.709 3.2813 -1.709 l0 2.5098 c-2.1289 0 -3.1445 0.625 -3.1445 2.7539 l0 4.8926 l-2.832 0 l0 -10.039 l2.6953 0 l0 1.5918 z M66.767565625 20.19531 c-3.1934 0 -5.498 -1.9434 -5.498 -5.2246 c0 -3.2617 2.2852 -5.2051 5.498 -5.2051 c3.2324 0 5.5078 1.9434 5.5078 5.2051 c0 3.2813 -2.2852 5.2246 -5.5078 5.2246 z M66.738265625 17.959 c1.6309 0 2.7441 -1.1914 2.7441 -2.9883 s-1.1133 -2.9883 -2.7441 -2.9883 c-1.5723 0 -2.6758 1.1914 -2.6758 2.9883 s1.1035 2.9883 2.6758 2.9883 z M81.01565625 9.961 l2.8125 0 l0 10.039 l-2.666 0 l-0.068359 -1.2109 c-0.70313 0.88867 -1.8164 1.4063 -3.1934 1.4063 c-2.4121 0 -3.7402 -1.2598 -3.7402 -3.4766 l0 -6.7578 l2.8223 0 l0 6.1523 c0 1.3281 0.83008 1.8164 1.8066 1.8164 c1.1621 0 2.2168 -0.58594 2.2266 -2.4316 l0 -5.5371 z M92.666003125 9.766 c2.4121 0 3.7402 1.25 3.7402 3.4766 l0 6.7578 l-2.8223 0 l0 -6.1523 c0 -1.3379 -0.83008 -1.8262 -1.7969 -1.8262 c-1.1621 0 -2.2168 0.58594 -2.2363 2.4414 l0 5.5371 l-2.8125 0 l0 -10.039 l2.8125 0 l0 1.1133 c0.70313 -0.83008 1.7871 -1.3086 3.1152 -1.3086 z M106.24998125 5 l2.8125 0 l0 15 l-2.666 0 l-0.068359 -1.3086 c-0.57617 0.98633 -1.7871 1.543 -3.1543 1.543 c-2.6465 0 -4.834 -1.9531 -4.834 -5.2344 s2.1973 -5.2344 4.834 -5.2344 c1.3184 0 2.4805 0.49805 3.0762 1.4063 l0 -6.1719 z M103.81838125 17.9004 c1.4941 0 2.6563 -1.1426 2.6563 -2.9004 s-1.1719 -2.9102 -2.6563 -2.9102 c-1.4941 0 -2.666 1.1035 -2.666 2.9102 c0 1.7969 1.1719 2.9004 2.666 2.9004 z M124.081990625 9.961 l2.6758 0 l0 9.2871 c0 3.9063 -2.1191 5.4883 -5.3223 5.4883 c-2.8809 0 -4.4434 -1.2109 -5.1758 -3.1152 l2.334 -0.99609 c0.56641 1.2988 1.3867 1.9238 2.7344 1.9238 c1.7773 0 2.6074 -1.1133 2.6074 -3.0957 l0 -1.1719 c-0.58594 0.80078 -1.7383 1.3672 -3.0469 1.3672 c-2.4902 0 -4.5801 -1.9629 -4.5801 -4.9609 c0 -3.0078 2.0996 -4.9219 4.5996 -4.9219 c1.4063 0 2.5586 0.625 3.1055 1.5234 z M121.611290625 17.373 c1.4648 0 2.5977 -1.1914 2.5977 -2.6855 c0 -1.5039 -1.1133 -2.6953 -2.5977 -2.6953 c-1.4746 0 -2.5879 1.1426 -2.5879 2.6953 c0 1.5332 1.1328 2.6855 2.5879 2.6855 z M131.11325625 8.457 c-0.88867 0 -1.6309 -0.72266 -1.6309 -1.6211 c0 -0.88867 0.74219 -1.6113 1.6309 -1.6113 c0.86914 0 1.6113 0.72266 1.6113 1.6113 c0 0.89844 -0.74219 1.6211 -1.6113 1.6211 z M129.67775625 20 l0 -10.039 l2.832 0 l0 10.039 l-2.832 0 z M143.65234375 17.2754 c0 1.2305 0.11719 2.0117 0.24414 2.4512 l0 0.27344 l-2.627 0 l-0.22461 -1.0938 c-0.75195 0.9082 -2.0508 1.2891 -3.2227 1.2891 c-1.582 0 -3.125 -0.70313 -3.125 -2.793 c0 -2.0801 1.5527 -2.7832 3.6523 -3.2422 l1.6504 -0.37109 c0.71289 -0.16602 0.9668 -0.41016 0.9668 -0.82031 c0 -0.98633 -0.89844 -1.2598 -1.6895 -1.2598 c-1.0156 0 -1.7871 0.40039 -1.9629 1.5332 l-2.4902 -0.44922 c0.41992 -2.0801 1.9434 -3.0273 4.6094 -3.0273 c2.0117 0 4.2188 0.5957 4.2188 3.623 l0 3.8867 z M138.70114375 18.291 c1.3379 0 2.4121 -0.88867 2.4121 -2.8809 l-2.3828 0.67383 c-0.78125 0.18555 -1.3477 0.45898 -1.3477 1.1328 c0 0.72266 0.5957 1.0742 1.3184 1.0742 z M152.314440625 9.766 c2.4121 0 3.7402 1.25 3.7402 3.4766 l0 6.7578 l-2.8223 0 l0 -6.1523 c0 -1.3379 -0.83008 -1.8262 -1.7969 -1.8262 c-1.1621 0 -2.2168 0.58594 -2.2363 2.4414 l0 5.5371 l-2.8125 0 l0 -10.039 l2.8125 0 l0 1.1133 c0.70313 -0.83008 1.7871 -1.3086 3.1152 -1.3086 z M162.51951875 20 c-1.9531 0 -3.0664 -1.1328 -3.0664 -3.1348 l0 -4.7461 l-1.9727 0 l0 -2.1582 l0.63477 0 c1.0645 0 1.6504 -0.41016 1.6504 -1.9141 l0 -1.3281 l2.5391 0 l0 3.2422 l2.0703 0 l0 2.1582 l-2.0703 0 l0 4.4434 c0 0.89844 0.43945 1.2988 1.1621 1.2988 l0.9082 0 l0 2.1387 l-1.8555 0 z M170.08785625 20.19531 c-2.2559 0 -4.0039 -0.88867 -4.3652 -2.793 l2.3535 -0.66406 c0.30273 1.0742 1.0645 1.4941 2.0117 1.4941 c0.69336 0 1.4453 -0.21484 1.4258 -1.0059 c-0.0097656 -1.0449 -1.5918 -1.1328 -3.1836 -1.6992 c-1.2012 -0.41992 -2.3535 -1.0645 -2.3535 -2.7539 c0 -2.0605 1.709 -3.0078 3.9355 -3.0078 c1.9531 0 3.584 0.74219 3.9746 2.6563 l-2.1777 0.48828 c-0.30273 -0.9375 -0.9668 -1.2695 -1.7871 -1.2695 c-0.74219 0 -1.377 0.26367 -1.377 0.88867 c0 0.79102 1.1621 0.94727 2.4219 1.2891 c1.5527 0.41992 3.252 1.0938 3.252 3.2422 c0 2.3047 -1.9629 3.1348 -4.1309 3.1348 z"/></g>
			</g>
		</svg>
	